<?xml version="1.0" encoding="utf-8"?>
<!-- Generator: Adobe Illustrator 27.0.1, SVG Export Plug-In . SVG Version: 6.00 Build 0)  -->
<svg version="1.1" id="Layer_1" xmlns="http://www.w3.org/2000/svg" xmlns:xlink="http://www.w3.org/1999/xlink" x="0px" y="0px"
	 viewBox="0 0 576 576" style="enable-background:new 0 0 576 576;" xml:space="preserve">
<style type="text/css">
	.st0{fill:#FFFFFF;}
</style>
<g>
	<path class="st0" d="M282.57,86.84c28.57,48.77,57.14,97.54,85.71,146.32c24.48,41.79,48.95,83.58,73.43,125.37
		c2.4,4.1-2.49,8.57-6.36,5.83c-9.04-6.41-18.08-12.82-26.95-19.46c-12.04-9.01-23.08-19.28-34.96-28.49
		c-16.21-12.57-35.73-24.16-56.89-24.12c-20,0.04-40.82,10.4-51.68,27.47c-1.14,1.79-0.7,4.67,2.11,4.25
		c16.89-2.55,33-5.86,48.25,4.55c11.55,7.89,18.93,21.71,18.61,35.69c-0.32,13.98-8.52,27.62-20.92,34.09
		c-10.54,5.49-23.21,5.74-34.75,2.95c-11.55-2.79-22.2-8.4-32.54-14.25c-20.87-11.81-46.42-28.3-71.47-21.17
		c-6.65,1.89-12.93,5.07-19.3,8.42c-3.75,1.98-7.86-1.95-6.04-5.78C192.97,275.5,237.18,182.41,282.57,86.84"/>
</g>
<rect x="303.78" y="447.77" class="st0" width="8.34" height="6.71"/>
</svg>
