<?xml version="1.0" encoding="utf-8"?>
<!-- Generator: Adobe Illustrator 27.0.1, SVG Export Plug-In . SVG Version: 6.00 Build 0)  -->
<svg version="1.1" id="Layer_1" xmlns="http://www.w3.org/2000/svg" xmlns:xlink="http://www.w3.org/1999/xlink" x="0px" y="0px"
	 viewBox="0 0 1280 146" style="enable-background:new 0 0 1280 146;" xml:space="preserve">
<style type="text/css">

		.st0{clip-path:url(#SVGID_00000139981935449396369020000013939563884353061762_);fill:none;stroke:#94AFC7;stroke-width:5;stroke-miterlimit:10;}
</style>
<g>
	<defs>
		<rect id="SVGID_1_" x="71.92" y="64" width="1136.89" height="34.07"/>
	</defs>
	<clipPath id="SVGID_00000101086572670356732530000009520966570079552667_">
		<use xlink:href="#SVGID_1_"  style="overflow:visible;"/>
	</clipPath>

		<path style="clip-path:url(#SVGID_00000101086572670356732530000009520966570079552667_);fill:none;stroke:#94AFC7;stroke-width:5;stroke-miterlimit:10;" d="
		M71.92,81.04c17.76-16.65,53.29-16.65,71.06,0s53.29,16.65,71.06,0c17.77-16.65,53.29-16.65,71.06,0
		c17.77,16.65,53.29,16.65,71.06,0c17.76-16.65,53.29-16.65,71.06,0c17.76,16.65,53.29,16.65,71.06,0
		c17.76-16.65,53.29-16.65,71.06,0c17.76,16.65,53.29,16.65,71.06,0c17.77-16.65,53.29-16.65,71.06,0
		c17.77,16.65,53.29,16.65,71.06,0c17.76-16.65,53.29-16.65,71.06,0c17.76,16.65,53.29,16.65,71.06,0
		c17.76-16.65,53.29-16.65,71.06,0s53.29,16.65,71.06,0c17.76-16.65,53.29-16.65,71.06,0c17.77,16.65,53.29,16.65,71.06,0"/>
</g>
</svg>
